<svg width="28" height="30" viewBox="0 0 28 30" fill="none" xmlns="http://www.w3.org/2000/svg">
<mask id="mask0_1_230" style="mask-type:alpha" maskUnits="userSpaceOnUse" x="0" y="0" width="28" height="30">
<path d="M8.89416 26.3531C8.89416 28.3543 7.27185 29.9766 5.27063 29.9766C3.26941 29.9766 1.6471 28.3543 1.6471 26.3531C1.6471 24.3518 3.26941 22.7295 5.27063 22.7295C7.27185 22.7295 8.89416 24.3518 8.89416 26.3531Z" fill="#C4C4C4"/>
<path d="M26.3531 26.3531C26.3531 28.3543 24.7308 29.9766 22.7296 29.9766C20.7284 29.9766 19.1061 28.3543 19.1061 26.3531C19.1061 24.3518 20.7284 22.7295 22.7296 22.7295C24.7308 22.7295 26.3531 24.3518 26.3531 26.3531Z" fill="#C4C4C4"/>
<path fill-rule="evenodd" clip-rule="evenodd" d="M25.1913 23.6941C25.4382 23.9227 25.4094 24.3092 25.1508 24.5246C23.7802 25.6662 22.0174 26.3529 20.0941 26.3529H19.7649C19.401 26.3529 19.0998 26.0554 19.1652 25.6974C19.4737 24.0092 20.9522 22.7295 22.7296 22.7295C23.68 22.7295 24.545 23.0954 25.1913 23.6941ZM27.0987 22.1165C26.8986 22.4976 26.3844 22.5313 26.0504 22.26C25.144 21.5237 23.9883 21.0824 22.7296 21.0824C20.0414 21.0824 17.8233 23.0949 17.4996 25.6954C17.4547 26.0565 17.164 26.3529 16.8002 26.3529H11.2C10.8361 26.3529 10.5455 26.0565 10.5006 25.6954C10.1769 23.0949 7.95876 21.0824 5.27059 21.0824C4.0118 21.0824 2.85608 21.5237 1.94969 22.26C1.61563 22.5314 1.10145 22.4977 0.901402 22.1166C0.325709 21.02 0 19.7716 0 18.4471V16.7999C0 16.4361 0.294965 16.1411 0.658823 16.1411H27.3412C27.705 16.1411 28 16.4361 28 16.7999V18.4471C28 19.7715 27.6743 21.0199 27.0987 22.1165ZM28 13.8352C28 14.1991 27.705 14.494 27.3412 14.494H0.658824C0.294965 14.494 0 14.1991 0 13.8352V9.8823C0 9.51844 0.294965 9.22348 0.658823 9.22348H27.3412C27.705 9.22348 28 9.51844 28 9.8823V13.8352ZM7.90588 0C3.883 0 0.561907 3.00468 0.0643695 6.89228C0.0168356 7.2637 0.318678 7.57642 0.693122 7.57642H27.3069C27.6813 7.57642 27.9832 7.26369 27.9356 6.89228C27.4381 3.00468 24.117 0 20.0941 0H7.90588ZM5.27059 22.7295C7.04795 22.7295 8.52644 24.0092 8.83496 25.6974C8.90037 26.0554 8.59914 26.3529 8.23528 26.3529H7.90588C5.98268 26.3529 4.21987 25.6662 2.84928 24.5246C2.59074 24.3093 2.56193 23.9228 2.80878 23.6942C3.45509 23.0955 4.3201 22.7295 5.27059 22.7295Z" fill="#C4C4C4"/>
</mask>
<g mask="url(#mask0_1_230)">
<rect x="-1.6471" y="-2.30583" width="33.6" height="10.8706" fill="url(#paint0_linear_1_230)"/>
<rect x="-1.6471" y="15.4824" width="33.6" height="16.4706" fill="#FFA833"/>
<rect x="-1.6471" y="8.56475" width="33.6" height="7.24706" rx="3.62353" fill="#F17228"/>
<rect x="-23.0587" y="22.7295" width="31.9529" height="7.24706" fill="#F58D00"/>
<rect x="19.1061" y="22.7295" width="31.9529" height="7.24706" fill="#F58D00"/>
<ellipse cx="8.11249" cy="2.81144" rx="1" ry="0.5" transform="rotate(-20.8548 8.11249 2.81144)" fill="white"/>
<ellipse cx="14" cy="2.48828" rx="1" ry="0.5" fill="white"/>
<ellipse cx="19.1176" cy="2.90053" rx="1" ry="0.5" transform="rotate(28.1155 19.1176 2.90053)" fill="white"/>
</g>
<defs>
<linearGradient id="paint0_linear_1_230" x1="15" y1="-0.511887" x2="15" y2="16.9881" gradientUnits="userSpaceOnUse">
<stop stop-color="#FFD16D"/>
<stop offset="1" stop-color="#FF7A00"/>
</linearGradient>
</defs>
</svg>
